# xmcd
#
# Track frame offsets:
#	150
#	16652
#	30036
#	40353
#
# Disc length: 790 seconds
#
# Revision: 1
# Processed by: cddbd v1.5.2PL0 Copyright (c) Steve Scherf et al.
# Submitted via: audiograbber 1.83.01
#
DISCID=1c031404
DTITLE=Krüger Brothers - Three Chairs Please
DYEAR=1999
DGENRE=Bluegrass
TTITLE0=Don't Think Twice
TTITLE1=Once I Had a Sweetheart
TTITLE2=Running Down the Mountain
TTITLE3=How Long Blues
EXTD=
EXTT0=
EXTT1=
EXTT2=
EXTT3=
PLAYORDER=
